<svg xmlns="http://www.w3.org/2000/svg" width="30" height="30" viewBox="0 0 30 30">
    <g fill="none" fill-rule="nonzero">
        <path fill="#FFF" fill-opacity=".05" d="M0 0h30v30H0z"/>
        <path fill="#000" d="M12.907 5C8.545 5 5 8.464 5 12.727s3.545 7.728 7.907 7.728a7.98 7.98 0 0 0 4.622-1.464l6.12 5.966 1.307-1.278-6.046-5.923a7.59 7.59 0 0 0 1.904-5.029C20.814 8.464 17.269 5 12.907 5zm0 .91c3.859 0 6.977 3.046 6.977 6.817 0 3.772-3.118 6.818-6.977 6.818-3.859 0-6.977-3.046-6.977-6.818 0-3.771 3.118-6.818 6.977-6.818z"/>
    </g>
</svg>
